<svg width="16" height="16" viewBox="0 0 16 16" fill="none" xmlns="http://www.w3.org/2000/svg">
<g opacity="0.4">
<path d="M3 6.66667C3 9.60733 6.34267 12.7773 7.562 13.836C7.81467 14.0553 8.186 14.0553 8.43867 13.836C9.65733 12.7773 13 9.60733 13 6.66667C13 4.08933 10.7613 2 8 2C5.23867 2 3 4.08933 3 6.66667V6.66667Z" stroke="#15222F" stroke-width="1.33333" stroke-linecap="round" stroke-linejoin="round"/>
<path d="M7.25191 6.42455C7.4417 6.63851 7.71401 6.76096 8 6.76096C8.286 6.76096 8.55831 6.63851 8.7481 6.42455C8.77223 6.39735 8.79914 6.37554 8.82683 6.36124C8.84947 6.34955 8.88683 6.33496 8.954 6.33496C9.0413 6.33496 9.12107 6.36896 9.19581 6.45365C9.28076 6.5499 9.32267 6.67487 9.32267 6.76696C9.32267 7.0604 9.11562 7.44613 8.67577 7.83028C8.4735 8.00694 8.26185 8.1465 8.09005 8.23714C8.05662 8.25478 8.02652 8.26961 8 8.28191C7.97349 8.26961 7.94339 8.25478 7.90996 8.23714C7.73816 8.1465 7.52651 8.00694 7.32424 7.83028C6.88439 7.44613 6.67734 7.0604 6.67734 6.76696C6.67734 6.67519 6.7192 6.55022 6.80433 6.45378C6.87933 6.36883 6.95921 6.33496 7.046 6.33496C7.11318 6.33496 7.15054 6.34955 7.17318 6.36124C7.20087 6.37554 7.22778 6.39735 7.25191 6.42455ZM7.87819 8.32984C7.87825 8.32972 7.88098 8.32889 7.88619 8.32771C7.88073 8.32936 7.87813 8.32995 7.87819 8.32984ZM8.11382 8.32771C8.11902 8.32889 8.12176 8.32972 8.12182 8.32984C8.12188 8.32995 8.11928 8.32936 8.11382 8.32771Z" stroke="#15222F" stroke-width="2" stroke-linecap="round" stroke-linejoin="round"/>
</g>
</svg>
