<svg width="16" height="16" viewBox="0 0 16 16" fill="none" xmlns="http://www.w3.org/2000/svg">
<g opacity="0.4">
<path d="M2.99805 8.12095C3.09368 6.3278 3.1415 5.43122 3.72016 4.8826C4.29881 4.33398 5.19666 4.33398 6.99237 4.33398H9.00765C10.8034 4.33398 11.7012 4.33398 12.2799 4.8826C12.8585 5.43122 12.9063 6.3278 13.002 8.12095L13.1086 10.121C13.2141 12.0977 13.2668 13.0861 12.6752 13.71C12.0836 14.334 11.0939 14.334 9.11432 14.334H6.8857C4.90616 14.334 3.91638 14.334 3.32481 13.71C2.73324 13.0861 2.78596 12.0977 2.89138 10.121L2.99805 8.12095Z" stroke="#15222F" stroke-width="1.33333"/>
<path d="M6.00003 3.66699C6.00003 2.56249 6.89553 1.66699 8.00003 1.66699C9.10453 1.66699 10 2.56249 10 3.66699" stroke="#15222F" stroke-width="1.33333" stroke-linecap="round" stroke-linejoin="round"/>
</g>
</svg>
