<svg width="16" height="16" viewBox="0 0 16 16" fill="none" xmlns="http://www.w3.org/2000/svg">
<g opacity="0.4">
<path d="M7.33333 12.928V5.00199C7.33333 4.54199 7.09667 4.11465 6.70667 3.87132L4.04 2.20465C3.152 1.64999 2 2.28799 2 3.33532V11.2607C2 11.7207 2.23667 12.148 2.62667 12.3913L5.29333 14.058C6.18133 14.6133 7.33333 13.9747 7.33333 12.928Z" stroke="#15222F" stroke-width="1.33333" stroke-linecap="round" stroke-linejoin="round"/>
<path d="M10 7.33301H14" stroke="#15222F" stroke-width="1.33333" stroke-linecap="round" stroke-linejoin="round"/>
<path d="M12.6667 8.66667L14 7.33333L12.6667 6" stroke="#15222F" stroke-width="1.33333" stroke-linecap="round" stroke-linejoin="round"/>
<path d="M7.33334 12.667H10C10.7367 12.667 11.3333 12.0703 11.3333 11.3337V10.667" stroke="#15222F" stroke-width="1.33333" stroke-linecap="round" stroke-linejoin="round"/>
<path d="M11.3333 4V3.33333C11.3333 2.59667 10.7367 2 10 2H3.33334" stroke="#15222F" stroke-width="1.33333" stroke-linecap="round" stroke-linejoin="round"/>
</g>
</svg>
