<svg width="16" height="16" viewBox="0 0 16 16" fill="none" xmlns="http://www.w3.org/2000/svg">
<g opacity="0.4">
<path d="M3.16666 6.66821H5.09799C5.82132 6.66821 6.40732 6.08221 6.40732 5.35888C6.40732 5.01154 6.26932 4.67821 6.02399 4.43288L4.88799 3.29688" stroke="#15222F" stroke-width="1.33333" stroke-linecap="round" stroke-linejoin="round"/>
<path d="M10.246 9.64863L9.42336 8.41463C9.27469 8.1913 9.02402 8.0573 8.75536 8.0573C8.45136 8.0573 8.17336 7.8853 8.03736 7.6133L7.97602 7.48996C7.86269 7.26396 7.86269 6.99796 7.97602 6.77196L8.50069 5.7233C8.63669 5.4513 8.91469 5.2793 9.21869 5.2793H11.2594" stroke="#15222F" stroke-width="1.33333" stroke-linecap="round" stroke-linejoin="round"/>
<path d="M9.33334 14.667H5.33334" stroke="#15222F" stroke-width="1.33333" stroke-linecap="round" stroke-linejoin="round"/>
<path d="M2.66666 11.333L3.09066 10.909C5.43332 13.2517 9.23332 13.2523 11.576 10.909C13.9187 8.56634 13.9187 4.76634 11.576 2.42367C11.3487 2.19634 11.104 1.99767 10.852 1.81434L11.3333 1.33301" stroke="#15222F" stroke-width="1.33333" stroke-linecap="round" stroke-linejoin="round"/>
<path d="M7.33334 12.667V14.667" stroke="#15222F" stroke-width="1.33333" stroke-linecap="round" stroke-linejoin="round"/>
<path d="M10.2796 3.72137C11.9068 5.34855 11.9068 7.98674 10.2796 9.61392C8.65241 11.2411 6.01423 11.2411 4.38705 9.61392C2.75986 7.98673 2.75986 5.34855 4.38705 3.72137C6.01423 2.09418 8.65242 2.09418 10.2796 3.72137" stroke="#15222F" stroke-width="1.33333" stroke-linecap="round" stroke-linejoin="round"/>
</g>
</svg>
