<svg width="16" height="16" viewBox="0 0 16 16" fill="none" xmlns="http://www.w3.org/2000/svg">
<g opacity="0.4">
<path d="M7.99999 8.27833V8.11166C7.99999 7.56699 8.33666 7.27166 8.67399 7.04499C9.00332 6.82299 9.33332 6.53366 9.33332 6.00033C9.33332 5.26366 8.73666 4.66699 7.99999 4.66699C7.26332 4.66699 6.66666 5.26366 6.66666 6.00033" stroke="#15222F" stroke-width="1.33333" stroke-linecap="round" stroke-linejoin="round"/>
<path d="M7.93201 10.667C7.87668 10.667 7.83201 10.7117 7.83268 10.767C7.83268 10.8223 7.87735 10.867 7.93268 10.867C7.98801 10.867 8.03268 10.8223 8.03268 10.767C8.03268 10.7117 7.98868 10.667 7.93201 10.667" stroke="#15222F" stroke-width="1.33333" stroke-linecap="round" stroke-linejoin="round"/>
<path d="M8 14C4.686 14 2 11.314 2 8C2 4.686 4.686 2 8 2C11.314 2 14 4.686 14 8C14 11.314 11.314 14 8 14Z" stroke="#15222F" stroke-width="1.33333" stroke-linecap="round" stroke-linejoin="round"/>
</g>
</svg>
