<svg width="16" height="16" viewBox="0 0 16 16" fill="none" xmlns="http://www.w3.org/2000/svg">
<g opacity="0.4">
<path d="M2.59998 10.4312L3.53198 10.5739C4.21998 10.6792 4.71131 11.2952 4.66064 11.9892L4.59198 12.9299C4.57198 13.2039 4.72131 13.4619 4.96864 13.5812L5.65798 13.9132C5.90531 14.0325 6.20064 13.9879 6.40264 13.8019L7.09531 13.1619C7.60598 12.6899 8.39398 12.6899 8.90531 13.1619L9.59798 13.8019C9.79998 13.9885 10.0946 14.0325 10.3426 13.9132L11.0333 13.5805C11.28 13.4619 11.4286 13.2045 11.4086 12.9312L11.34 11.9892C11.2893 11.2952 11.7806 10.6792 12.4686 10.5739L13.4006 10.4312C13.672 10.3899 13.8906 10.1865 13.952 9.91852L14.122 9.17318C14.1833 8.90518 14.0746 8.62718 13.848 8.47252L13.07 7.93985C12.496 7.54652 12.3206 6.77852 12.6673 6.17518L13.1373 5.35785C13.274 5.11985 13.2513 4.82185 13.08 4.60718L12.6033 4.00918C12.432 3.79452 12.1466 3.70585 11.884 3.78652L10.9826 4.06252C10.3166 4.26652 9.60664 3.92452 9.35064 3.27718L9.00531 2.40185C8.90398 2.14585 8.65664 1.97785 8.38131 1.97852L7.61731 1.98052C7.34198 1.98118 7.09531 2.15052 6.99531 2.40718L6.65864 3.27252C6.40531 3.92385 5.69198 4.26852 5.02398 4.06318L4.08531 3.77518C3.82198 3.69385 3.53531 3.78318 3.36398 3.99918L2.89064 4.59785C2.71931 4.81452 2.69864 5.11318 2.83798 5.35118L3.31864 6.17052C3.67264 6.77452 3.49931 7.54985 2.92198 7.94518L2.15331 8.47185C1.92664 8.62718 1.81798 8.90518 1.87931 9.17252L2.04931 9.91785C2.10998 10.1865 2.32864 10.3899 2.59998 10.4312V10.4312Z" stroke="#15222F" stroke-width="1.33333" stroke-linecap="round" stroke-linejoin="round"/>
<path d="M9.27736 6.72236C9.9827 7.42769 9.9827 8.57169 9.27736 9.27703C8.57203 9.98236 7.42803 9.98236 6.7227 9.27703C6.01736 8.57169 6.01736 7.42769 6.7227 6.72236C7.42803 6.01703 8.57203 6.01703 9.27736 6.72236Z" stroke="#15222F" stroke-width="1.33333" stroke-linecap="round" stroke-linejoin="round"/>
</g>
</svg>
