<svg width="16" height="16" viewBox="0 0 16 16" fill="none" xmlns="http://www.w3.org/2000/svg">
<g opacity="0.4" clip-path="url(#clip0)">
<path d="M12.3734 12.96C12.7642 13.3508 12.7642 13.9839 12.3734 14.374C11.9827 14.7647 11.3496 14.7647 10.9595 14.374C10.5688 13.9832 10.5688 13.3501 10.9595 12.96C11.3502 12.5693 11.9833 12.5693 12.3734 12.96Z" stroke="#15222F" stroke-width="1.33333" stroke-linecap="round" stroke-linejoin="round"/>
<path d="M5.0403 12.9598C5.43107 13.3506 5.43107 13.9838 5.0403 14.3739C4.64953 14.7647 4.01635 14.7647 3.62621 14.3739C3.23608 13.9831 3.23545 13.35 3.62621 12.9598C4.01698 12.5697 4.64953 12.5691 5.0403 12.9598Z" stroke="#15222F" stroke-width="1.33333" stroke-linecap="round" stroke-linejoin="round"/>
<path d="M1.33334 4.00033C1.33334 3.26395 1.9303 2.66699 2.66668 2.66699H8.66668C9.40306 2.66699 10 3.26395 10 4.00033V8.66699C10 9.40337 9.40306 10.0003 8.66668 10.0003H1.33334V4.00033Z" stroke="#15222F" stroke-width="1.33333" stroke-linecap="round" stroke-linejoin="round"/>
<path d="M3.33331 13.6107H1.99998C1.63198 13.6107 1.33331 13.312 1.33331 12.944V8" stroke="#15222F" stroke-width="1.33333" stroke-linecap="round" stroke-linejoin="round"/>
<path d="M9.99997 4.66699H12.882C13.1546 4.66699 13.4 4.83299 13.5006 5.08633L14.5713 7.76233C14.634 7.91966 14.6666 8.08766 14.6666 8.25699V12.889C14.6666 13.257 14.368 13.5557 14 13.5557H12.7793" stroke="#15222F" stroke-width="1.33333" stroke-linecap="round" stroke-linejoin="round"/>
<path d="M10.6667 13.6133H5.44666" stroke="#15222F" stroke-width="1.33333" stroke-linecap="round" stroke-linejoin="round"/>
<path d="M14.6666 9.33398H12.6666V7.33398H14" stroke="#15222F" stroke-width="1.33333" stroke-linecap="round" stroke-linejoin="round"/>
</g>
<defs>
<clipPath id="clip0">
<rect width="16" height="16" fill="white"/>
</clipPath>
</defs>
</svg>
