<svg width="10" height="10" viewBox="0 0 10 10" fill="none" xmlns="http://www.w3.org/2000/svg">
<path d="M9 2.5H3.5M0.999999 7.5H6.5M3.06066 1.43934C3.64644 2.02512 3.64644 2.97487 3.06066 3.56066C2.47487 4.14644 1.52512 4.14644 0.939339 3.56066C0.353554 2.97487 0.353554 2.02512 0.939339 1.43934C1.52512 0.853554 2.47487 0.853554 3.06066 1.43934ZM9.06065 6.43935C9.64643 7.02513 9.64643 7.97488 9.06065 8.56067C8.47486 9.14645 7.52511 9.14645 6.93933 8.56067C6.35354 7.97488 6.35354 7.02513 6.93933 6.43935C7.52511 5.85356 8.47486 5.85356 9.06065 6.43935Z" stroke="white" stroke-linecap="round" stroke-linejoin="round"/>
</svg>
